<svg width="29" height="29" viewBox="0 0 29 29" fill="none" xmlns="http://www.w3.org/2000/svg">
<path d="M4 24.3205C2.75 23.0705 1.77111 21.6261 1.06333 19.9872C0.354444 18.3483 0 16.6538 0 14.9038C0 13.1538 0.333333 11.4244 1 9.71551C1.66667 8.00774 2.75 6.40385 4.25 4.90385C5.22222 3.93162 6.42389 3.09829 7.855 2.40385C9.285 1.7094 10.9789 1.16051 12.9367 0.757179C14.8956 0.354957 17.1322 0.11218 19.6467 0.0288462C22.16 -0.0544871 24.9722 0.0427346 28.0833 0.320512C28.3056 3.26496 28.375 5.97329 28.2917 8.44551C28.2083 10.9177 27.9789 13.1466 27.6033 15.1322C27.2289 17.1188 26.7017 18.855 26.0217 20.3405C25.3406 21.8272 24.5 23.0705 23.5 24.0705C22.0278 25.5427 20.4656 26.6188 18.8133 27.2988C17.16 27.98 15.4722 28.3205 13.75 28.3205C11.9444 28.3205 10.1806 27.9666 8.45833 27.2588C6.73611 26.55 5.25 25.5705 4 24.3205ZM8.66667 23.6538C9.47222 24.1261 10.2989 24.4661 11.1467 24.6738C11.9933 24.8827 12.8611 24.9872 13.75 24.9872C15.0278 24.9872 16.2917 24.7305 17.5417 24.2172C18.7917 23.7027 19.9861 22.8761 21.125 21.7372C21.625 21.2372 22.1317 20.5361 22.645 19.6338C23.1594 18.7305 23.6044 17.5494 23.98 16.0905C24.3544 14.6327 24.6389 12.8694 24.8333 10.8005C25.0278 8.73051 25.0556 6.26496 24.9167 3.40385C23.5556 3.34829 22.0211 3.32718 20.3133 3.34051C18.6044 3.35496 16.9028 3.48718 15.2083 3.73718C13.5139 3.98718 11.9028 4.38996 10.375 4.94551C8.84722 5.50107 7.59722 6.26496 6.625 7.23718C5.375 8.48718 4.51389 9.72329 4.04167 10.9455C3.56944 12.1677 3.33333 13.3483 3.33333 14.4872C3.33333 16.1261 3.64555 17.5633 4.27 18.7988C4.89555 20.0355 5.44444 20.9038 5.91667 21.4038C7.08333 19.1816 8.625 17.0494 10.5417 15.0072C12.4583 12.9661 14.6944 11.2927 17.25 9.98718C15.25 11.7372 13.5072 13.7161 12.0217 15.9238C10.535 18.1327 9.41667 20.7094 8.66667 23.6538Z" fill="#004D7E"/>
</svg>
