<svg width="40" height="29" viewBox="0 0 40 29" fill="none" xmlns="http://www.w3.org/2000/svg">
<path d="M0 27.0455C0 27.387 0.15051 27.7146 0.418419 27.9561C0.686328 28.1976 1.04969 28.3333 1.42857 28.3333H38.5714C38.9503 28.3333 39.3137 28.1976 39.5816 27.9561C39.8495 27.7146 40 27.387 40 27.0455V11.4299H0V27.0455ZM5.89286 15.9375C5.89286 15.7667 5.96811 15.6029 6.10207 15.4822C6.23602 15.3614 6.4177 15.2936 6.60714 15.2936H14.8214C15.0109 15.2936 15.1926 15.3614 15.3265 15.4822C15.4605 15.6029 15.5357 15.7667 15.5357 15.9375V21.089C15.5357 21.2598 15.4605 21.4236 15.3265 21.5444C15.1926 21.6651 15.0109 21.733 14.8214 21.733H6.60714C6.4177 21.733 6.23602 21.6651 6.10207 21.5444C5.96811 21.4236 5.89286 21.2598 5.89286 21.089V15.9375ZM38.5714 0H1.42857C1.04969 0 0.686328 0.135687 0.418419 0.377211C0.15051 0.618735 0 0.946312 0 1.28788V6.60038H40V1.28788C40 0.946312 39.8495 0.618735 39.5816 0.377211C39.3137 0.135687 38.9503 0 38.5714 0Z" fill="#004D7E"/>
</svg>
